<svg width="50" height="50" viewBox="0 0 50 50" fill="none" xmlns="http://www.w3.org/2000/svg">
<circle cx="25" cy="25.0002" r="25" fill="#FFDA79"/>
<path d="M36 16.0102C35.0424 16.6857 33.9821 17.2023 32.86 17.5402C32.2577 16.8477 31.4573 16.3569 30.567 16.1342C29.6767 15.9114 28.7395 15.9674 27.8821 16.2947C27.0247 16.6219 26.2884 17.2046 25.773 17.964C25.2575 18.7233 24.9877 19.6226 25 20.5402V21.5402C23.2426 21.5858 21.5013 21.1961 19.931 20.4057C18.3607 19.6153 17.0103 18.4489 16 17.0102C16 17.0102 12 26.0102 21 30.0102C18.9405 31.4082 16.4872 32.1092 14 32.0102C23 37.0102 34 32.0102 34 20.5102C33.9991 20.2317 33.9723 19.9538 33.92 19.6802C34.9406 18.6737 35.6608 17.403 36 16.0102V16.0102Z" stroke="black" stroke-width="2" stroke-linecap="round" stroke-linejoin="round"/>
</svg>
